<svg width="60" height="60" viewBox="0 0 60 60" fill="none" xmlns="http://www.w3.org/2000/svg">
<g clip-path="url(#clip0_7_17)">
<path d="M57.6037 46.0856C56.5068 48.5513 53.6775 50.7844 51.0206 51.2775C50.7487 51.3281 44.2556 52.5 30.0187 52.5H29.9812C15.7462 52.5 9.24746 51.3281 8.97746 51.2794C6.32058 50.7844 3.48933 48.5512 2.39058 46.0837C2.29308 45.8644 0.00183105 40.5881 0.00183105 30C0.00183105 19.4119 2.29308 14.1338 2.39058 13.9144C3.48933 11.4469 6.32058 9.21563 8.97746 8.7225C9.24746 8.67188 15.7462 7.5 29.9812 7.5C44.2556 7.5 50.7487 8.67188 51.0187 8.72063C53.6775 9.21563 56.5068 11.4469 57.6056 13.9125C57.7031 14.1338 60 19.4119 60 30C60 40.5881 57.7031 45.8644 57.6037 46.0856ZM54.1743 15.4313C53.5893 14.1169 51.7556 12.6731 50.3343 12.4088C50.2743 12.3975 43.8487 11.25 30.0187 11.25C16.1531 11.25 9.72183 12.3975 9.65996 12.4088C8.23871 12.6731 6.40683 14.1169 5.81996 15.4388C5.80121 15.4781 3.75371 20.3044 3.75371 30C3.75371 39.6938 5.80121 44.52 5.82371 44.5688C6.40683 45.8831 8.23871 47.3269 9.66183 47.5912C9.72183 47.6025 16.1531 48.75 29.9812 48.75H30.0187C43.8487 48.75 50.2743 47.6025 50.3362 47.5912C51.7575 47.3269 53.5893 45.8831 54.1762 44.5613C54.195 44.52 56.2462 39.6938 56.2462 30C56.2462 20.3062 54.195 15.4781 54.1743 15.4313ZM25.3893 40.9613C25.0856 41.1544 24.7368 41.25 24.39 41.25C24.0787 41.25 23.7675 41.1731 23.4843 41.0156C22.8862 40.6856 22.515 40.0575 22.515 39.375V20.625C22.515 19.9444 22.8825 19.3181 23.4768 18.9881C24.0712 18.6562 24.8006 18.6713 25.3762 19.0294L40.4118 28.3219C40.9612 28.6612 41.2987 29.2613 41.3006 29.9081C41.3025 30.555 40.9725 31.1587 40.425 31.5019L25.3893 40.9613ZM26.2668 23.9887V35.9794L35.8818 29.9306L26.2668 23.9887Z" fill="black"/>
</g>
<defs>
<clipPath id="clip0_7_17">
<rect width="60" height="60" fill="white"/>
</clipPath>
</defs>
</svg>
